<mxfile host="app.diagrams.net" modified="2023-07-12T14:20:52.153Z" agent="Mozilla/5.0 (X11; Linux x86_64) AppleWebKit/537.36 (KHTML, like Gecko) Chrome/114.0.0.0 Safari/537.36" version="21.6.2" etag="D1wVu74P9dz-Q0qpPvuG" type="github">
  <diagram name="PÃ¡gina-1" id="STO9WbjoZTlle3vnNPaI">
    <mxGraphModel>
      <root>
        <mxCell id="0" />
        <mxCell id="1" parent="0" />
      </root>
    </mxGraphModel>
  </diagram>
</mxfile>
